<?xml version="1.0" encoding="UTF-8"?>
<svg version="1.1" xmlns="http://www.w3.org/2000/svg" width="32" height="32">
<path d="M0 0 C1.17369141 -0.02513672 1.17369141 -0.02513672 2.37109375 -0.05078125 C5.02377163 0.38896749 5.885467 1.26878454 7.5625 3.3125 C6.9025 4.6325 6.2425 5.9525 5.5625 7.3125 C4.9025 5.9925 4.2425 4.6725 3.5625 3.3125 C0.9225 3.3125 -1.7175 3.3125 -4.4375 3.3125 C-4.4375 3.9725 -4.4375 4.6325 -4.4375 5.3125 C-4.1075 4.6525 -3.7775 3.9925 -3.4375 3.3125 C-1.4575 3.3125 0.5225 3.3125 2.5625 3.3125 C2.8925 5.2925 3.2225 7.2725 3.5625 9.3125 C4.8825 9.3125 6.2025 9.3125 7.5625 9.3125 C7.5625 10.6325 7.5625 11.9525 7.5625 13.3125 C6.9025 13.3125 6.2425 13.3125 5.5625 13.3125 C5.5625 12.3225 5.5625 11.3325 5.5625 10.3125 C4.9025 10.3125 4.2425 10.3125 3.5625 10.3125 C3.5625 11.9625 3.5625 13.6125 3.5625 15.3125 C4.8825 14.9825 6.2025 14.6525 7.5625 14.3125 C7.5625 14.9725 7.5625 15.6325 7.5625 16.3125 C2.94815925 18.84294493 -1.44684517 18.52829803 -6.4375 17.3125 C-7.0975 16.6525 -7.7575 15.9925 -8.4375 15.3125 C-8.4375 14.3225 -8.4375 13.3325 -8.4375 12.3125 C-7.7775 12.3125 -7.1175 12.3125 -6.4375 12.3125 C-6.4375 13.3025 -6.4375 14.2925 -6.4375 15.3125 C-5.7775 15.3125 -5.1175 15.3125 -4.4375 15.3125 C-4.4375 13.6625 -4.4375 12.0125 -4.4375 10.3125 C-5.7575 9.9825 -7.0775 9.6525 -8.4375 9.3125 C-6.03085038 0.02970862 -6.03085038 0.02970862 0 0 Z M-2.4375 5.3125 C-2.4375 6.6325 -2.4375 7.9525 -2.4375 9.3125 C-1.1175 9.3125 0.2025 9.3125 1.5625 9.3125 C1.5625 7.9925 1.5625 6.6725 1.5625 5.3125 C0.2425 5.3125 -1.0775 5.3125 -2.4375 5.3125 Z M-2.4375 10.3125 C-2.4375 12.2925 -2.4375 14.2725 -2.4375 16.3125 C-1.1175 16.3125 0.2025 16.3125 1.5625 16.3125 C1.5625 14.3325 1.5625 12.3525 1.5625 10.3125 C0.2425 10.3125 -1.0775 10.3125 -2.4375 10.3125 Z " fill="#E2E2E2" transform="translate(16.4375,6.6875)"/>
<path d="M0 0 C0.7734375 -0.00773438 1.546875 -0.01546875 2.34375 -0.0234375 C4.95159728 0.45844732 5.83871866 1.36229376 7.5 3.375 C6.84 4.695 6.18 6.015 5.5 7.375 C4.84 6.055 4.18 4.735 3.5 3.375 C0.86 3.375 -1.78 3.375 -4.5 3.375 C-4.83 5.355 -5.16 7.335 -5.5 9.375 C-6.16 9.375 -6.82 9.375 -7.5 9.375 C-7.86670547 3.87441793 -7.86670547 3.87441793 -6.26953125 1.69921875 C-4.04096075 0.03148056 -2.76108127 -0.02761081 0 0 Z " fill="#BBBBBB" transform="translate(16.5,6.625)"/>
<path d="M0 0 C0.66 0 1.32 0 2 0 C2 1.65 2 3.3 2 5 C3.32 4.67 4.64 4.34 6 4 C6 4.66 6 5.32 6 6 C4.02 6.66 2.04 7.32 0 8 C-1.43088528 5.13822943 -0.59991697 3.06624227 0 0 Z " fill="#DBDBDB" transform="translate(18,17)"/>
</svg>
